<?xml version="1.0" encoding="UTF-8"?>
<svg width="33px" height="33px" viewBox="0 0 33 33" version="1.1" xmlns="http://www.w3.org/2000/svg" xmlns:xlink="http://www.w3.org/1999/xlink">
    <title>icon-email</title>
    <g id="Symbols" stroke="none" stroke-width="1" fill="none" fill-rule="evenodd">
        <g id="icon-email">
            <circle id="Oval" fill="#2488FF" cx="16.5" cy="16.5" r="16.5"></circle>
            <path d="M23.2175172,9.78248283 C21.4232263,7.98819192 19.0375172,7 16.5,7 C13.9624828,7 11.5767737,7.98819192 9.78248283,9.78248283 C7.98815354,11.5768121 7,13.9624444 7,16.5 C7,19.0375556 7.98815354,21.4231879 9.78248283,23.2175172 C11.5767737,25.0118081 13.9624828,26 16.5,26 C17.7821737,26 19.0263859,25.7487394 20.1980909,25.2531273 L19.5999939,23.8390667 C18.6185576,24.2541879 17.5755535,24.4646465 16.5,24.4646465 C12.1082747,24.4646465 8.53535354,20.8917253 8.53535354,16.5 C8.53535354,12.1082747 12.1082747,8.53535354 16.5,8.53535354 C20.8917253,8.53535354 24.4646465,12.1082747 24.4646465,16.5 C24.4646465,18.3480667 23.3882869,19.1753152 22.3215616,19.1753152 C21.254798,19.1753152 20.1784384,18.3481051 20.1784384,16.5 C20.1784384,14.4716828 18.5283172,12.8215616 16.5,12.8215616 C14.4716828,12.8215616 12.8215616,14.4717212 12.8215616,16.5 C12.8215616,18.5282788 14.4716828,20.1784384 16.5,20.1784384 C17.5958586,20.1784384 18.5811333,19.6965677 19.2556141,18.933804 C19.9503232,20.1066606 21.1405293,20.7106303 22.3215616,20.7106303 C24.1495152,20.7106687 26,19.2643273 26,16.5 C26,13.9624444 25.0118465,11.5768121 23.2175172,9.78248283 Z M16.5,18.6430848 C15.3183152,18.6430848 14.3569152,17.6816848 14.3569152,16.5 C14.3569152,15.3183152 15.3183152,14.3569152 16.5,14.3569152 C17.6816848,14.3569152 18.6430848,15.3183152 18.6430848,16.5 C18.6430848,17.6816848 17.6816848,18.6430848 16.5,18.6430848 Z" id="Shape" fill="#FFFFFF" fill-rule="nonzero"></path>
        </g>
    </g>
</svg>