<?xml version="1.0" encoding="UTF-8"?>
<svg width="104px" height="91px" viewBox="0 0 104 91" version="1.1" xmlns="http://www.w3.org/2000/svg" xmlns:xlink="http://www.w3.org/1999/xlink">
    <title>icon-maker</title>
    <g id="Page-1" stroke="none" stroke-width="1" fill="none" fill-rule="evenodd">
        <g id="PORTFOLIO-/-ABOUT-ME" transform="translate(-1265.000000, -679.000000)">
            <g id="Group-14" transform="translate(458.000000, 572.000000)">
                <g id="Group-13" transform="translate(0.000000, 82.000000)">
                    <g id="Group-9" transform="translate(710.000000, 0.000000)">
                        <g id="icon-maker" transform="translate(97.000000, 25.000000)">
                            <g id="icon-hammer" transform="translate(13.000000, 0.000000)">
                                <rect id="Rectangle" x="0" y="0" width="91" height="91"></rect>
                                <g id="Group" transform="translate(1.000000, 5.000000)">
                                    <g transform="translate(40.133507, 18.733146)" fill="#333333" id="Path">
                                        <path d="M23.8649025,7.78848393 L6.22222536,25.4522648 L5.8052217,24.9403522 C4.40473205,23.5381873 2.73811444,21.8702755 1.34391127,20.4744046 C1.0805773,20.2107556 0.791398892,19.9890667 0.474979035,19.8254226 L19.7437609,0.533591922 L23.8649025,7.78848393 Z"></path>
                                    </g>
                                    <g transform="translate(55.500476, 18.733146)" fill="#262626" id="Path">
                                        <path d="M8.49793373,7.78848393 L6.37938754,9.90956427 L5.96168539,9.39765171 C4.56189423,7.99548683 2.89527662,6.32757498 1.50107345,4.93170411 C1.23773948,4.66805515 0.948561073,4.44636624 0.632141215,4.28272206 L4.37679211,0.533591922 L8.49793373,7.78848393 Z"></path>
                                    </g>
                                    <g transform="translate(39.940645, 18.708158)" fill="#666666" id="Shape">
                                        <path d="M2.74645161,21.7065789 L6.46516129,25.4297368 L6.41548387,25.4794737 L5.99677419,24.9678947 C5.99677419,24.9678947 2.74645161,21.7065789 2.74645161,21.7065789 Z M20.8148387,2.09605263 L1.98709677,20.9463158 L1.54,20.4986842 C1.27741935,20.2357895 0.986451613,20.0155263 0.667096774,19.8521053 L19.9419355,0.561315789 L20.8148387,2.09605263 Z"></path>
                                    </g>
                                    <g transform="translate(39.940645, 23.681842)" fill="#262626" id="Path">
                                        <path d="M23.0645161,0.476052632 L24.0580645,2.84210526 L6.41548387,20.5057895 L5.99677419,19.9942105 C4.59870968,18.5873684 2.93096774,16.9247368 1.54,15.525 C1.27741935,15.2621053 0.986451613,15.0418421 0.667096774,14.8784211 L2.46258065,13.0878947 L5.99677419,16.6263158 L6.41548387,17.1378947 L23.0645161,0.476052632 Z"></path>
                                    </g>
                                    <g transform="translate(45.721496, 0.550459)" fill="#9E9E9E" id="Path">
                                        <path d="M0.639126201,1.7511326 C0.340867307,1.61965779 0.175323144,1.29656543 0.2458715,0.977669079 C0.315721358,0.658772727 0.601407278,0.433587145 0.926907617,0.440422028 C5.89393102,0.722412131 14.3241104,2.25535249 20.8229412,8.89972582 C30.1080828,18.394585 29.6247218,19.4834482 29.6247218,19.4834482 C29.6247218,19.4834482 38.0346447,23.4290912 41.1583304,26.7278502 C41.5662535,27.2810234 41.5068812,28.0495916 41.0200276,28.5335308 C38.8930995,30.6678985 33.4329361,36.0975285 31.1432577,38.3745604 C30.8645568,38.6514967 30.4824781,38.7983568 30.0906204,38.7794748 C29.6980642,38.7605928 29.3320509,38.5773672 29.0819884,38.2745556 C27.4901101,36.3905495 24.5221897,32.605054 24.2665392,29.9811524 C24.0227632,27.4733403 17.718115,26.589382 17.718115,26.589382 L12.2125492,20.9954085 C12.2125492,20.9954085 16.8030819,8.89972582 0.639126201,1.7511326 Z"></path>
                                    </g>
                                    <g transform="translate(45.618065, 0.945000)" fill="#B6B6B6" id="Path">
                                        <path d="M5.98258065,4.30578947 C4.54193548,3.26842105 2.81032258,2.27368421 0.74516129,1.35710526 C0.447096774,1.22921053 0.283870968,0.902368421 0.347741935,0.582631579 C0.418709677,0.262894737 0.702580645,0.0426315789 1.02903226,0.0495698214 C5.99677419,0.326842105 14.4277419,1.86157895 20.9283871,8.505 C30.2109677,18.0047368 29.7283871,19.0918421 29.7283871,19.0918421 C29.7283871,19.0918421 38.1380645,23.0352632 41.2606452,26.3321053 C41.6722581,26.8863158 41.6154839,27.6536842 41.1258065,28.1439474 C40.8774194,28.3926316 40.5793548,28.6839474 40.2529032,29.0178947 C36.6264516,25.9555263 29.7283871,22.7226316 29.7283871,22.7226316 C29.7283871,22.7226316 30.2109677,21.6284211 20.9283871,12.1357895 C16.2729032,7.38236842 10.6380645,5.24368421 5.98258065,4.30578947 Z"></path>
                                    </g>
                                    <g transform="translate(45.618065, 0.945000)" fill="#767676" id="Shape">
                                        <path d="M12.9019355,17.3652632 L17.8270968,22.3673684 C17.8270968,22.3673684 24.1290323,23.2484211 24.3703226,25.7636842 C24.6258065,28.3855263 27.5993548,32.1726316 29.1890323,34.0555263 C29.4374194,34.3539474 29.8064516,34.5386842 30.1967742,34.56 C30.5870968,34.5742105 30.9703226,34.4321053 31.2470968,34.155 C33.2412903,32.1726316 37.6341935,27.8028947 40.1393548,25.2947368 C40.5651613,25.65 40.9412903,25.9981579 41.2606452,26.3321053 C41.6722581,26.8863158 41.6154839,27.6536842 41.1258065,28.1439474 C38.9967742,30.2755263 33.5393548,35.7039474 31.2470968,37.9847368 C30.9703226,38.2618421 30.5870968,38.4039474 30.1967742,38.3897368 C29.8064516,38.3684211 29.4374194,38.1836842 29.1890323,37.8781579 C27.5993548,35.9952632 24.6258065,32.2152632 24.3703226,29.5863158 C24.1290323,27.0781579 17.8270968,26.1971053 17.8270968,26.1971053 L12.32,20.6052632 C12.32,20.6052632 12.8025806,19.3263158 12.9019355,17.3652632 Z M12.7883871,14.7363158 C12.2206452,10.6578947 9.58774194,5.265 0.74516129,1.35710526 C0.447096774,1.22921053 0.283870968,0.902368421 0.347741935,0.582631579 C0.418709677,0.262894737 0.702580645,0.0426315789 1.02903226,0.0497368421 C2.54064516,0.135 4.36451613,0.333947368 6.3516129,0.760263158 C12.9729032,5.74105263 13.2141935,11.6881579 12.7883871,14.7363158 Z"></path>
                                    </g>
                                    <g transform="translate(0.198710, 37.892368)" fill="#F47632" id="Shape">
                                        <path d="M45.7387097,11.7165789 C47.3780645,10.0752632 47.3780645,7.425 45.7387097,5.78368421 C44.3406452,4.37684211 42.6729032,2.71421053 41.2819355,1.31447368 C39.663871,-0.305526316 37.0451613,-0.326842105 35.3987097,1.27184211 C29.6006452,6.89210526 17.0535484,19.0634211 14.0729032,21.9552632 C13.64,22.3744737 13.1929032,22.7652632 12.7174194,23.1347368 C10.6522581,24.7547368 4.55612903,29.5294737 1.45483871,31.9594737 C0.986451613,32.3289474 0.695483871,32.8831579 0.66,33.48 C0.624516129,34.0768421 0.844516129,34.6594737 1.26322581,35.0857895 C3.43483871,37.26 6.45096774,40.2797368 7.70709677,41.5302632 C8.07612903,41.9068421 8.58709677,42.12 9.11225806,42.12 C10.7729032,42.12 14.4916129,42.12 16.3580645,42.12 C17.0393548,42.12 17.6780645,41.7647368 18.04,41.1821053 C18.6077419,40.2797368 19.4664516,38.9084211 20.1122581,37.8852632 C20.68,36.9757895 21.3541935,36.1373684 22.1064516,35.3771053 C26.1232258,31.3626316 39.6851613,17.7773684 45.7387097,11.7165789 Z M12.7032258,30.4744737 C14.2503226,30.4744737 15.5064516,31.7321053 15.5064516,33.2881579 C15.5064516,34.8371053 14.2503226,36.0947368 12.7032258,36.0947368 C11.156129,36.0947368 9.89290323,34.8371053 9.89290323,33.2881579 C9.89290323,31.7321053 11.156129,30.4744737 12.7032258,30.4744737 Z"></path>
                                    </g>
                                    <g transform="translate(0.198710, 37.892368)" fill="#F79865" id="Path">
                                        <path d="M1.45483871,35.2776316 L1.45483871,35.2705263 C4.55612903,32.8405263 10.6522581,28.0728947 12.7174194,26.4457895 C13.1929032,26.0763158 13.64,25.6855263 14.0729032,25.2663158 C17.0535484,22.3744737 29.6006452,10.2102632 35.3987097,4.58289474 C37.0451613,2.99131579 39.663871,3.01263158 41.2819355,4.63263158 C42.6729032,6.02526316 44.3406452,7.695 45.7387097,9.09473684 C46.1290323,9.48552632 46.4270968,9.93315789 46.6329032,10.4092105 C47.2858065,8.87447368 46.9877419,7.03421053 45.7387097,5.78368421 C44.3406452,4.37684211 42.6729032,2.71421053 41.2819355,1.31447368 C39.663871,-0.305526316 37.0451613,-0.326842105 35.3987097,1.27184211 C29.6006452,6.89210526 17.0535484,19.0634211 14.0729032,21.9552632 C13.64,22.3744737 13.1929032,22.7652632 12.7174194,23.1347368 C10.6522581,24.7547368 4.55612903,29.5294737 1.45483871,31.9594737 C0.986451613,32.3289474 0.695483871,32.8831579 0.66,33.48 C0.624516129,34.0768421 0.844516129,34.6594737 1.26322581,35.0857895 L1.45483871,35.2776316 Z"></path>
                                    </g>
                                    <g transform="translate(0.198710, 44.287105)" fill="#B75825" id="Path">
                                        <path d="M46.3845161,0.220263158 C46.2141935,0.511578947 45.9941935,0.795789474 45.7387097,1.04447368 C39.6851613,7.11236842 26.1232258,20.6905263 22.1064516,24.7121053 C21.3541935,25.4652632 20.68,26.3107895 20.1122581,27.2202632 C19.4664516,28.2434211 18.6077419,29.6147368 18.04,30.5171053 C17.6780645,31.0926316 17.0393548,31.4478947 16.3580645,31.4478947 C14.4916129,31.4478947 10.7729032,31.4478947 9.11225806,31.4478947 C8.58709677,31.4478947 8.07612903,31.2418421 7.70709677,30.8652632 L1.99419355,25.1455263 L1.45483871,25.5647368 C0.986451613,25.9342105 0.695483871,26.4884211 0.66,27.0852632 C0.624516129,27.6821053 0.844516129,28.2647368 1.26322581,28.6910526 C3.43483871,30.8652632 6.45096774,33.885 7.70709677,35.1355263 C8.07612903,35.5121053 8.58709677,35.7252632 9.11225806,35.7252632 C10.7729032,35.7252632 14.4916129,35.7252632 16.3580645,35.7252632 C17.0393548,35.7252632 17.6780645,35.37 18.04,34.7873684 C18.6077419,33.885 19.4664516,32.5136842 20.1122581,31.4905263 C20.68,30.5810526 21.3541935,29.7426316 22.1064516,28.9823684 C26.1232258,24.9678947 39.6851613,11.3826316 45.7387097,5.32184211 C47.1225806,3.93631579 47.3354839,1.82605263 46.3845161,0.220263158 Z"></path>
                                    </g>
                                </g>
                            </g>
                            <g id="icon-saw" transform="translate(52.000000, 45.500000) scale(-1, 1) translate(-52.000000, -45.500000) ">
                                <rect id="Rectangle" x="0" y="0" width="91" height="91"></rect>
                                <g id="Group" transform="translate(56.296297, 45.960854) rotate(-4.000000) translate(-56.296297, -45.960854) translate(12.248424, 6.269364)">
                                    <g transform="translate(0.706658, 14.079038)" fill="#9E9E9E" id="Shape">
                                        <path d="M63.7277346,24.3513888 L54.4055548,0.556032882 C54.4055548,0.556032882 10.82829,44.0762988 0.84941761,54.042119 C-0.264104635,55.1541847 -0.264104635,56.9577273 0.84941761,58.0769217 C3.22635932,60.4436257 6.83816866,64.0507108 6.83816866,64.0507108 L9.55059464,60.400854 L13.1195762,59.673734 L14.6042725,56.8721838 L18.1661161,56.1521925 L19.6508124,53.3506422 L23.212656,52.6306509 L24.6973524,49.8291006 L28.2591959,49.1019807 L29.7510302,46.307559 L33.3128738,45.5804391 L34.7975702,42.7788888 L38.3594137,42.0588975 L39.8441101,39.2573472 L43.4059537,38.5302273 L44.89065,35.7358056 L48.4596315,35.0086857 L49.9443279,32.214264 L53.5061715,31.4871441 L54.9908678,28.6855938 L58.5527114,27.9656025 L63.7277346,24.3513888 Z M9.13659278,50.5490919 C7.11654922,50.5490919 5.4748177,52.1815474 5.4748177,54.1989487 C5.4748177,56.2234787 7.11654922,57.8559342 9.13659278,57.8559342 C11.1566363,57.8559342 12.7983679,56.2234787 12.7983679,54.1989487 C12.7983679,52.1815474 11.1566363,50.5490919 9.13659278,50.5490919 Z"></path>
                                    </g>
                                    <g transform="translate(3.561844, 14.079038)" fill="#767676" id="Path">
                                        <path d="M49.908638,2.19561702 L57.1179808,20.6088598 L51.9429575,24.2159449 L48.3811139,24.9430648 L46.8964176,27.7374865 L43.334574,28.4646064 L41.8498777,31.2661567 L38.2880341,31.986148 L36.8033378,34.7876983 L33.2414942,35.5148182 L31.7496599,38.3092398 L28.1878163,39.0363598 L26.70312,41.8307814 L23.1412764,42.5579014 L21.6565801,45.3594516 L18.0947365,46.0794429 L16.6029022,48.8809932 L13.0410586,49.6081132 L11.5563623,52.4025348 L9.65766408,52.7874807 C9.84325113,53.2223269 9.94318261,53.6999449 9.94318261,54.1989487 C9.94318261,56.2234787 8.30145109,57.8559342 6.28140753,57.8559342 C5.15360936,57.8559342 4.1400186,57.3498017 3.46905007,56.5442669 L2.94797876,56.6511963 L0.235552783,60.3081818 L3.98298341,64.0507108 L6.6954094,60.400854 L10.2643909,59.673734 L11.7490873,56.8721838 L15.3109309,56.1521925 L16.7956272,53.3506422 L20.3574708,52.6306509 L21.8421671,49.8291006 L25.4040107,49.1019807 L26.895845,46.307559 L30.4576886,45.5804391 L31.9423849,42.7788888 L35.5042285,42.0588975 L36.9889248,39.2573472 L40.5507684,38.5302273 L42.0354647,35.7358056 L45.6044463,35.0086857 L47.0891426,32.214264 L50.6509862,31.4871441 L52.1356825,28.6855938 L55.6975261,27.9656025 L60.8725494,24.3513888 L51.5503696,0.556032882 L49.908638,2.19561702 Z"></path>
                                    </g>
                                    <g transform="translate(0.706658, 14.079038)" fill="#B6B6B6" id="Path">
                                        <path d="M56.311391,5.41775629 L54.4055548,0.556032882 C54.4055548,0.556032882 10.82829,44.0762988 0.84941761,54.042119 C-0.264104635,55.1541847 -0.264104635,56.9577273 0.84941761,58.0769217 L4.23995009,61.4558907 C3.12642784,60.343825 3.12642784,58.5331538 4.23995009,57.421088 L5.85312975,55.8100184 C5.610439,55.3252718 5.4748177,54.7834961 5.4748177,54.1989487 C5.4748177,52.1815474 7.11654922,50.5490919 9.13659278,50.5490919 C9.71476779,50.5490919 10.2643909,50.6774072 10.7497724,50.9197805 L56.311391,5.41775629 Z"></path>
                                    </g>
                                    <g transform="translate(52.099993, 0.534647)" fill="#F43131" id="Shape">
                                        <path d="M34.240809,23.1965513 C34.5477414,22.9684352 34.7476044,22.6191325 34.8047081,22.2413153 C34.8546739,21.8634981 34.7476044,21.4785522 34.5120516,21.1720213 C33.8268072,20.3023288 32.9060099,19.1261054 32.2921451,18.3348279 C31.8924192,17.8286954 31.2000367,17.6504797 30.6004478,17.9071103 C29.8509617,18.2278985 28.823095,18.6627447 28.0807469,18.9835329 C27.5025719,19.2330348 26.8316033,19.0690764 26.4247394,18.5914584 C24.8615255,16.7308868 21.0355773,12.1756944 19.4152597,10.2438366 C18.9798439,9.73057544 18.9727059,8.98206963 19.3867078,8.45455126 C19.936331,7.74168859 20.707231,6.7579381 21.2568541,6.05933269 C21.6565801,5.54607157 21.6565801,4.82608027 21.2568541,4.31281915 C20.5359199,3.37896905 19.3867078,1.8962147 18.565842,0.84117795 C18.3160133,0.513261122 17.9377013,0.313659574 17.5308374,0.285145068 C17.1239735,0.263759188 16.7171096,0.413460348 16.4315911,0.705734043 C13.2694734,3.85658704 4.43981305,12.6746983 1.13493613,15.9752524 C0.356898155,16.7522727 0.0999314835,17.9071103 0.463967602,18.9407611 C1.34193706,21.4215232 2.95511673,26.0052302 3.79739637,28.4004487 C4.13288064,29.3485561 4.9537464,30.0542901 5.94592327,30.2467631 C10.0930798,31.0594265 20.892818,33.1766286 20.892818,33.1766286 C20.892818,33.1766286 30.7931728,25.7699855 34.240809,23.1965513 Z M24.1976949,24.0092147 L13.0624725,11.4485745 C13.0624725,11.4485745 10.4856678,14.570913 9.30076593,16.0037669 C8.95100574,16.4314845 8.87962611,17.0302892 9.11517889,17.529293 C10.0930798,19.5609516 12.5485391,24.6650484 12.5485391,24.6650484 C12.5485391,24.6650484 18.0947365,25.8983008 19.9506069,26.3117611 C20.3360569,26.3973046 20.7286449,26.3188897 21.0569912,26.1050309 C22.056306,25.43494 24.1976949,24.0092147 24.1976949,24.0092147 Z"></path>
                                    </g>
                                    <g transform="translate(55.668974, 0.534647)" fill="#B72525" id="Shape">
                                        <path d="M27.8951598,17.8215667 L29.0086821,19.2472921 C29.2442349,19.5466944 29.3513043,19.9316402 29.3013386,20.3094574 C29.2513728,20.6944033 29.0515098,21.0365774 28.7374395,21.2646934 C25.2898033,23.8452563 15.3894485,31.2447708 15.3894485,31.2447708 C15.3894485,31.2447708 4.59684824,29.1275687 0.442553713,28.3149052 C0.349760192,28.300648 0.264104635,28.2792621 0.178449078,28.2507476 L0.228414819,28.4004487 C0.563899086,29.3485561 1.38476484,30.0542901 2.37694171,30.2467631 C6.52409828,31.0594265 17.3238365,33.1766286 17.3238365,33.1766286 C17.3238365,33.1766286 27.2241913,25.7699855 30.6718275,23.1965513 C30.9787599,22.9684352 31.1786229,22.6191325 31.2357266,22.2413153 C31.2856923,21.8634981 31.1786229,21.4785522 30.9430701,21.1720213 C30.2578256,20.3023288 29.3370284,19.1261054 28.7231635,18.3348279 C28.5090247,18.0710687 28.2163682,17.892853 27.8951598,17.8215667 Z M9.39355945,11.5768897 L7.56624089,9.52384526 C7.56624089,9.52384526 4.98229825,12.6461838 3.80453434,14.0719091 C3.44763618,14.5067553 3.37625655,15.0984313 3.6189473,15.5974352 C4.58971028,17.6362224 8.17296776,22.9826925 8.17296776,22.9826925 L5.54619733,17.529293 C5.31064455,17.0302892 5.38202418,16.4314845 5.73178438,16.0037669 L9.39355945,11.5768897 Z M14.1545808,0.313659574 L15.7534846,2.38096132 C16.1532105,2.89422244 16.1532105,3.61421373 15.7534846,4.12747485 C15.2038614,4.8332089 14.4400994,5.80983075 13.8833382,6.52269342 C13.4693364,7.0502118 13.4836123,7.7987176 13.9118901,8.31197872 C15.5322077,10.2438366 19.3652939,14.799029 20.9213699,16.6596006 C21.1069569,16.880588 21.3496477,17.0302892 21.6137523,17.1087041 L15.8462781,10.2438366 C15.4108623,9.73057544 15.4037244,8.98206963 15.8177262,8.45455126 C16.3673494,7.74168859 17.1382494,6.7579381 17.6878726,6.05933269 C18.0875985,5.54607157 18.0875985,4.82608027 17.6878726,4.31281915 C16.9669383,3.37896905 15.8177262,1.8962147 14.9968605,0.84117795 C14.7898596,0.563161509 14.4900651,0.377817215 14.1545808,0.313659574 Z"></path>
                                    </g>
                                    <g transform="translate(52.099993, 0.534647)" fill="#F76565" id="Path">
                                        <path d="M5.93164734,30.2467631 L2.7481158,21.2219217 C2.38407968,20.1882708 2.64818431,19.0334333 3.42622229,18.2635416 C6.73109921,14.9558588 15.5536216,6.14487621 18.7157393,2.98689458 C19.0083958,2.69462089 19.4081217,2.54491973 19.8149856,2.57343424 C19.8506754,2.57343424 19.8863652,2.58056286 19.922055,2.58056286 L18.565842,0.84117795 C18.3160133,0.513261122 17.9377013,0.313659574 17.5308374,0.285145068 C17.1239735,0.263759188 16.7171096,0.413460348 16.4315911,0.705734043 C13.2694734,3.85658704 4.43981305,12.6746983 1.13493613,15.9752524 C0.356898155,16.7522727 0.0999314835,17.9071103 0.463967602,18.9407611 C1.34193706,21.4215232 2.95511673,26.0052302 3.79739637,28.4004487 C4.13288064,29.3485561 4.94660843,30.0471615 5.93164734,30.2467631 Z"></path>
                                    </g>
                                </g>
                            </g>
                        </g>
                    </g>
                </g>
            </g>
        </g>
    </g>
</svg>