<?xml version="1.0" encoding="UTF-8"?>
<svg width="107px" height="32px" viewBox="0 0 107 32" version="1.1" xmlns="http://www.w3.org/2000/svg" xmlns:xlink="http://www.w3.org/1999/xlink">
    <title>icon-caffe</title>
    <defs>
        <circle id="path-1" cx="16" cy="16" r="16"></circle>
    </defs>
    <g id="Page-1" stroke="none" stroke-width="1" fill="none" fill-rule="evenodd">
        <g id="PORTFOLIO-/-HOME" transform="translate(-984.000000, -616.000000)">
            <g id="Group-5" transform="translate(458.000000, 65.000000)">
                <g id="Group-7" transform="translate(256.000000, 218.000000)">
                    <g id="Group-5" transform="translate(30.000000, 332.000000)">
                        <g id="icon-caffe" transform="translate(240.000000, 1.000000)">
                            <g id="icon-caffe">
                                <mask id="mask-2" fill="white">
                                    <use xlink:href="#path-1"></use>
                                </mask>
                                <use id="Mask" fill="#573728" xlink:href="#path-1"></use>
                                <g id="coffee-svgrepo-com" mask="url(#mask-2)" fill="#FFFFFF" fill-rule="nonzero">
                                    <g transform="translate(7.000000, 9.000000)">
                                        <path d="M9.72315918,0.00192018146 C10.8746999,-0.00979871175 12.0256513,0.0270012075 13.1507949,0.256189894 C13.9049884,0.409789557 14.6622974,0.647756602 15.3561184,0.983366676 C15.9651905,1.27798225 16.5289201,1.73813259 16.8468652,2.37860686 C17.0743779,2.83694099 17.2869027,3.28606433 17.5827028,3.71248501 C17.921951,4.20152178 17.9175725,4.82565014 17.8531583,5.42301099 C17.84638,5.4860595 17.8281083,5.54772423 17.8168253,5.61034031 C17.743191,6.01993941 17.7896703,6.35273868 18.0501058,6.73998107 C18.8137299,7.8755029 18.7740709,9.10525156 18.181797,10.3151516 C18.0234981,10.6385239 17.799143,10.9355611 17.567757,11.2116686 C17.2202992,11.6263703 16.7824931,11.8919265 16.2241104,11.8427158 C15.9379513,11.8175051 15.7289209,11.9273859 15.5130701,12.1121639 C14.9126708,12.6261519 14.2268489,12.9918592 13.5007787,13.2899343 C12.9682038,13.5085716 12.4541531,13.7733494 11.8765303,13.8532628 C10.595277,14.0305164 9.31250809,14.0517488 8.02856033,13.8919654 C7.1673466,13.7847656 6.32558344,13.6273173 5.49741882,13.318518 C3.96722356,12.7480111 2.98374914,11.6213974 2.23338678,10.2125356 C1.45793236,8.75679827 1.09106608,7.15286665 0.694855563,5.56770256 C0.564090513,5.04463344 0.653344185,4.45877527 0.672963153,3.90279811 C0.682898939,3.62089602 0.871173665,3.41185864 1.06416368,3.21752394 C1.17042607,3.11054039 1.29239206,2.99140551 1.33697679,2.85371933 C1.47919325,2.4146284 1.76859408,2.09951558 2.14590134,1.90483492 C3.72708066,1.08909617 5.31962719,0.288924957 7.12541422,0.147649591 C7.98991181,0.0800605505 8.85714596,0.0493579152 9.72315918,0.00192018146 L9.72315918,0.00192018146 Z M2.06119456,7.82897328 L2.04940634,7.81773006 C1.99273867,8.17180496 1.92588262,8.52756634 2.21949352,8.85876561 C2.37913971,8.53387984 2.52922902,8.22836699 2.67936044,7.92285415 C2.63692284,8.22732916 2.54097514,8.50702584 2.41303085,8.77033337 C2.26075229,9.08375971 2.31316778,9.33011593 2.58332854,9.57500188 C2.80456818,9.1226353 2.96834025,8.67269034 3.2809807,8.31368573 C3.13270173,8.77020364 2.9441323,9.20505674 2.77636065,9.64821253 C2.73030239,9.76989875 2.69274849,9.94468755 2.74369044,10.046136 C2.9016105,10.3606434 3.10398899,10.6515833 3.31066176,10.9866312 C3.62654398,10.2593679 3.9109348,9.60453695 4.19532563,8.94970595 C4.22618551,8.9626789 4.25708749,8.97565184 4.28794737,8.98862479 C4.24075238,9.13487311 4.1990305,9.28324036 4.1453099,9.42693734 C3.97303347,9.88777957 3.78985294,10.3444272 3.62321802,10.8073884 C3.45818292,11.2658522 3.4673609,11.2762738 3.90032541,11.6285757 C4.18732648,10.9836042 4.47340134,10.3408813 4.7594341,9.69811512 C4.79307263,9.7124286 4.82675326,9.72674208 4.86039179,9.74101232 C4.5940622,10.4422865 4.32773261,11.1435606 4.0707073,11.8203159 C4.53718404,12.3073202 4.75720276,12.4505848 5.24439308,12.5929412 C5.51160679,12.0434938 5.78130444,11.4889436 6.05100209,10.9343935 C6.0836723,10.9504799 6.11630042,10.9665664 6.14897063,10.9826528 C5.89375565,11.5507381 5.63854067,12.1187801 5.37162167,12.7129842 C5.61938481,12.8133083 5.81283793,12.8916216 6.01378499,12.972962 C6.3399398,12.2996662 6.61953114,11.6590622 7.02559325,11.0956472 C7.05582161,11.111258 7.08604998,11.126912 7.11627835,11.1425228 C6.82628811,11.7654836 6.53629788,12.3884876 6.22597297,13.0552105 C6.45458025,13.1125509 6.62837231,13.15614 6.79959621,13.1991237 C7.1243617,12.5975682 7.43043443,12.0305641 7.73654926,11.4635599 C7.76551461,11.4782626 7.79447995,11.4929652 7.82348739,11.5076247 C7.64502215,12.1074504 7.24792751,12.6122709 7.0336345,13.2361398 C7.23858114,13.2727667 7.41485714,13.3042477 7.58187097,13.3340423 C7.91194115,12.75493 8.22597093,12.2040123 8.54004282,11.6530514 C8.571029,11.6710838 8.60201518,11.6891594 8.63295926,11.7071918 C8.36886101,12.2403366 8.10476276,12.7735246 7.82567663,13.3369828 C8.07179784,13.3755557 8.28011255,13.4082475 8.51857141,13.4456096 C8.72907536,13.1189509 8.93722166,12.7959245 9.14541006,12.4728982 C9.16465012,12.4873847 9.18389018,12.5018711 9.20313024,12.5163576 C9.05013597,12.8140867 8.89718381,13.1117725 8.72014999,13.4562474 C9.0194866,13.4562474 9.2334007,13.4562474 9.4095083,13.4562474 C9.67310134,12.9550593 9.92094868,12.4837523 10.1688381,12.0124019 C10.1991928,12.0286614 10.2295896,12.0449208 10.2599442,12.0611802 C10.0398834,12.5071036 9.81986469,12.9530269 9.57866927,13.4417177 C9.84617768,13.4417177 10.0691435,13.4417177 10.3080654,13.4417177 C10.5661433,13.0406375 10.7227582,12.5641413 11.1060438,12.2312555 C10.9099804,12.6263249 10.7139591,13.0214376 10.4855203,13.4817609 C10.7754263,13.4607879 10.9705634,13.4466907 11.144987,13.4341069 C11.221442,13.2466046 11.2742785,13.0966806 11.3428186,12.9547134 C11.4097168,12.8161191 11.4926553,12.6856978 11.568563,12.5516872 C11.5907081,12.5653088 11.6128952,12.5789304 11.6350402,12.592552 C11.5161897,12.8573731 11.3973812,13.1221509 11.2717946,13.4019773 C12.4604262,13.3349936 14.493389,12.4569415 15.0543399,11.7782835 C14.6162812,11.6051812 14.1482468,11.4802518 13.9318908,10.9429124 C14.2740439,11.0995391 14.616197,11.2561658 14.9782217,11.4218735 C15.0951356,11.16782 15.1981562,10.9439502 15.336752,10.6428049 C15.4016293,10.9935069 15.1091552,11.1826092 15.2477931,11.5017868 C15.3778845,11.3603385 15.4772003,11.2524036 15.6078811,11.1103499 C15.5967665,11.2443604 15.5887673,11.3401872 15.579421,11.4531815 C15.7054286,11.4531815 15.809165,11.4531815 15.921532,11.4531815 C16.0026181,11.2418955 15.9843043,10.9774204 16.261538,10.8629558 C16.2074384,11.0753662 16.1633589,11.2483387 16.1181427,11.4257654 C16.5221418,11.5342624 16.7903239,11.3544142 17.0288248,11.1118201 C18.0267819,10.0967305 18.4333913,8.48903669 17.7572106,7.06875873 C17.4790086,6.48437082 17.0545905,6.17518231 16.4088065,6.16034991 C15.8333308,6.14711751 15.3022294,6.25466322 14.8145759,6.57928953 C14.7299113,6.63563535 14.6106818,6.63719211 14.5074086,6.6640461 C14.486274,6.62603538 14.4651394,6.58802465 14.4439627,6.55001392 C14.5575927,6.43602498 14.6558981,6.29656583 14.7877577,6.21284709 C15.1904939,5.95723684 15.6365938,5.81734526 16.110775,5.82357227 C16.4760415,5.82837226 16.8407606,5.87572351 17.2490962,5.90755047 C17.3183098,5.45994064 17.4192254,5.00956325 17.4489065,4.55434262 C17.4751353,4.15174891 17.3708095,3.76770651 17.0384659,3.52960974 C16.8774725,3.80134968 16.7628741,4.09341391 16.5666003,4.30595398 C16.1359934,4.77228809 15.6232058,5.14967105 15.0141758,5.32173553 C13.7141034,5.68899959 12.3928123,5.97025303 11.0494182,6.09600411 C10.2015925,6.17535528 9.34597821,6.16597152 8.49402665,6.20091198 C7.3699777,6.24700918 6.27476778,6.01388537 5.17480048,5.83624251 C4.34924612,5.70292389 3.52874385,5.55395124 2.76242529,5.16861155 C2.05618456,4.81345557 1.4016015,4.43140235 1.21778946,3.52299354 C0.995076286,3.73510118 0.933314429,3.95468989 0.953143901,4.20268934 C1.0064014,4.86867707 1.06290066,5.53142156 1.29344458,6.16860935 C1.48214031,6.69020821 1.62747223,7.2282827 1.79532808,7.75792478 C1.81705208,7.82646517 1.85860556,7.88843261 1.89338081,7.95835678 C1.96819391,7.90067042 2.01467318,7.86482185 2.06119456,7.82897328 L2.06119456,7.82897328 Z M9.46996503,0.361270744 C8.93397989,0.361270744 8.54496861,0.339346468 8.15903068,0.365681545 C7.26253649,0.426827357 6.35614861,0.502675839 5.51611157,0.836772404 C4.50720827,1.23798233 3.53034368,1.7251164 2.54522732,2.1877316 C2.38002383,2.26530981 2.22934511,2.39209872 2.09618031,2.52230384 C1.55244863,3.05389186 1.55750072,3.79819293 2.11790432,4.30655938 C2.30066384,4.47235361 2.51929324,4.60376954 2.73724902,4.71979091 C3.38968494,5.06707663 4.0870424,5.26244918 4.81627016,5.3610868 C5.76606395,5.48956219 6.70886901,5.71667521 7.66144146,5.76761564 C8.74065307,5.825302 9.82735863,5.73548598 10.9107803,5.70819955 C11.0035284,5.70586442 11.0976236,5.69989687 11.1883508,5.68143204 C12.2649101,5.4624055 13.3392801,5.23148708 14.4178181,5.02309835 C15.071054,4.8968716 15.5864518,4.52139135 16.0698531,4.09618147 C16.5391506,3.68333913 16.6678106,2.90405435 16.2931556,2.46392559 C15.9415299,2.05086704 15.5382885,1.63828416 15.0754324,1.38276039 C14.5106083,1.07093405 13.8731602,0.862977751 13.243585,0.717118612 C11.9563534,0.418870618 10.6421352,0.327584332 9.46996503,0.361270744 L9.46996503,0.361270744 Z" id="Shape"></path>
                                        <path d="M1.67027047,5 C2.98133708,5.73167816 4.43843317,5.91145888 5.87122803,6.20076426 C7.31948327,6.4931862 8.77191459,6.66366178 10.249358,6.65471281 C11.7221365,6.64580837 13.1405373,6.24230349 14.5838168,6.01978144 C14.5975445,6.06323513 14.6112723,6.10673333 14.625,6.15018702 C14.4727508,6.21924098 14.3259217,6.30605931 14.1674084,6.35458853 C12.9444393,6.72910944 11.705299,6.95893314 10.414935,6.99526327 C8.81016569,7.04045332 7.26088489,6.7554666 5.70831653,6.43196815 C5.26089856,6.33873862 4.80161874,6.29016488 4.36424113,6.16385534 C3.62827388,5.95130627 2.90150289,5.70402986 2.1796188,5.44673595 C1.97894489,5.37518874 1.80901403,5.21695678 1.625,5.09848315 C1.64010497,5.06567027 1.65520993,5.0328574 1.67027047,5 L1.67027047,5 Z" id="Path"></path>
                                        <path d="M16.0531791,7.02940668 C15.976148,7.27056066 15.8991169,7.51171464 15.8145329,7.77656667 C16.3128963,7.9892734 16.2640169,7.40205123 16.5659188,7.20220092 C16.4783308,7.4791898 16.4118566,7.68949794 16.3422067,7.90978421 C16.6400317,8.06852273 16.6202483,7.67342741 16.8053375,7.64075865 C16.8612548,7.85164245 16.501762,8.14244719 16.9604726,8.33212749 C17.0299079,8.21929794 17.1252204,8.06434919 17.2205759,7.90944841 C17.1918234,8.32478781 16.9084605,8.68548739 17.2029811,9.1018342 C17.3226261,8.89718672 17.4444597,8.68879744 17.5662933,8.48036019 C17.5858622,8.49139369 17.6054311,8.5024272 17.625,8.51341273 C17.6041437,8.59304583 17.5960329,8.68078616 17.5603282,8.7510168 C17.34271,9.17945249 17.1739281,9.61647512 17.1065527,10.1174921 C17.0381903,10.6257048 16.7013133,10.869737 16.2487395,10.9608834 C15.7433811,11.0626315 15.2910647,10.9816551 14.9613544,10.5298092 C14.607655,10.0451027 14.5195091,9.48925404 14.7610735,8.89565162 C14.9300699,8.48031222 15.0555512,8.03657355 15.5264923,7.8970717 C15.618286,7.86987172 15.6863909,7.69933215 15.7441964,7.58189731 C15.8367625,7.39365617 15.9115621,7.19452544 15.9938716,7 C16.0136122,7.00978624 16.0333957,7.01957247 16.0531791,7.02940668 L16.0531791,7.02940668 Z M16.7337565,9.41959906 C16.721483,9.26383479 16.7210539,9.12121478 16.6972794,8.98367978 C16.6362553,8.63084757 16.4580323,8.39420293 16.1454448,8.27086757 C15.8451737,8.15242532 15.5975155,8.15799004 15.4312656,8.51087022 C15.4183484,8.53831006 15.3822146,8.55490829 15.3541487,8.57025925 C14.9825969,8.77375541 14.9249202,9.15959218 14.9186976,9.55598274 C14.9113592,10.0240431 15.3213622,10.504768 15.7484449,10.564253 C16.2537175,10.6346275 16.583342,10.3601811 16.6925588,9.77243127 C16.7148313,9.65231001 16.7214401,9.5285429 16.7337565,9.41959906 L16.7337565,9.41959906 Z" id="Shape"></path>
                                        <path d="M2.625,9 C2.31404474,9.63261148 2.00308948,10.2651756 1.64194293,11 C1.53631044,10.5285031 1.93189861,9.697389 2.625,9 Z" id="Path"></path>
                                        <path d="M3.625,11.9476482 C3.80884931,11.2512214 4.18721821,10.6342083 4.52355726,10 C4.55737151,10.0133633 4.59118575,10.0267267 4.625,10.0401379 C4.33740357,10.6934093 4.04985723,11.3467286 3.7622608,12 C3.7165239,11.9825654 3.6707369,11.9651308 3.625,11.9476482 Z" id="Path"></path>
                                        <path d="M16.625,4.79532164 C16.3699849,5.08788275 16.0915408,5.23554918 15.625,5.1992753 C15.8999222,4.9464829 16.1845426,4.808136 16.625,4.79532164 Z" id="Path"></path>
                                        <path d="M1.55457043,8.16374269 C1.57652408,8.05456741 1.59847773,7.94539214 1.62043138,7.83625731 C1.64925818,7.84576312 1.67804455,7.85530939 1.70687135,7.8648152 C1.65225002,7.96080369 1.59758826,8.05679218 1.54312865,8.15298292 C1.54324995,8.15322562 1.55457043,8.16374269 1.55457043,8.16374269 L1.55457043,8.16374269 Z" id="Path"></path>
                                        <path d="M10.5383075,1.97316003 C10.894991,1.97316003 11.22737,1.96475848 11.559229,1.97505868 C12.0924563,1.99162443 12.6025922,2.10122422 13.0425004,2.46443667 C13.3051716,2.68131039 13.4846614,2.95580824 13.5839159,3.30340427 C13.681524,3.6452094 13.6031516,3.91885286 13.3707203,4.15357393 C12.9244435,4.60426685 12.3894399,4.80984357 11.79296,4.7627095 C10.7942635,4.68382043 9.79777656,4.57085054 8.80029313,4.47344961 C8.42043147,4.43637839 8.04056982,4.39869012 7.66018828,4.36864392 C7.32741942,4.34234757 7.01128684,4.39019364 6.67934113,4.48498393 C6.1429945,4.63815781 5.5902282,4.71125598 5.08126211,4.9818616 C4.93478489,5.05975387 4.71292454,4.87463513 4.6571237,4.65818861 C4.58433999,4.37590627 4.64061739,4.12015762 4.77171472,3.85762128 C5.11440469,3.17130544 5.6413501,2.68202238 6.23908632,2.31928459 C6.95994833,1.88183478 7.7207114,1.5135909 8.48849291,1.18313023 C8.83295915,1.03484537 9.23556572,1.0119666 9.61339116,1.00128667 C10.2849509,0.982252665 10.45244,1.16822579 10.5383075,1.97316003 Z M5.04279072,4.73684034 C5.29567079,4.59942528 5.5244196,4.43747012 5.77465693,4.34571768 C6.74588624,3.98972011 7.73851742,3.98653987 8.75003771,4.11090168 C9.82520042,4.24309545 10.9084213,4.29602042 11.9876131,4.39043097 C12.3780024,4.42455927 12.7064389,4.27295178 13.0093145,4.02579453 C13.3218512,3.77080534 13.3682941,3.55526068 13.1820458,3.16836253 C12.9454554,2.67684855 12.5360471,2.45660472 12.0633862,2.36684587 C11.4950667,2.25895487 10.9258374,2.23811715 10.3563915,2.39200303 C10.0477539,2.47540139 9.99160651,2.39371182 10.0793369,2.05233389 C10.092204,2.00220943 10.1175917,1.95540761 10.1267329,1.90476103 C10.1973505,1.51487249 10.0866586,1.34798083 9.71273226,1.34114568 C9.42792267,1.33592438 9.13535814,1.34014889 8.85843345,1.40380125 C7.61716791,1.6891689 6.51536116,2.3130665 5.53997278,3.18473841 C5.27920781,3.41779815 5.10950912,3.78381112 4.92793976,4.1089081 C4.79809882,4.34154064 4.82972507,4.57820782 5.04279072,4.73684034 Z" id="Shape"></path>
                                    </g>
                                </g>
                            </g>
                            <text id="OFFRIMI-UN-CAFFÈ" font-family="KGHAPPY, KG HAPPY" font-size="13" font-weight="normal" line-spacing="14" fill="#573728">
                                <tspan x="35" y="17">OFFRIMI</tspan>
                                <tspan x="35" y="31">UN CAFFÈ</tspan>
                            </text>
                        </g>
                    </g>
                </g>
            </g>
        </g>
    </g>
</svg>