<?xml version="1.0" encoding="UTF-8"?>
<svg width="68px" height="74px" viewBox="0 0 68 74" version="1.1" xmlns="http://www.w3.org/2000/svg" xmlns:xlink="http://www.w3.org/1999/xlink">
    <title>icon-draw</title>
    <g id="Page-1" stroke="none" stroke-width="1" fill="none" fill-rule="evenodd">
        <g id="PORTFOLIO-/-ABOUT-ME" transform="translate(-586.000000, -689.000000)" fill-rule="nonzero">
            <g id="Group-14" transform="translate(458.000000, 572.000000)">
                <g id="Group-13" transform="translate(0.000000, 82.000000)">
                    <g id="icon-draw" transform="translate(162.000000, 72.000000) rotate(-180.000000) translate(-162.000000, -72.000000) translate(128.000000, 35.000000)">
                        <path d="M9,1 L1,11.4804271 L1,65.2006765 C1,69.5082186 4.58162486,73 9,73 L9,73 C13.4183751,73 17,69.5082186 17,65.2006765 L17,11.4804271 L9,1 Z" id="Path" fill="#FF8766"></path>
                        <rect id="Rectangle" fill="#E67151" x="1" y="54" width="16" height="7"></rect>
                        <polygon id="Path" fill="#FFE4B3" points="1 11.1071039 3.66654253 15 6.33338299 11.1071039 9.00007448 15 11.666617 11.1071039 14.3333085 15 17 11.1071039 9.00007448 1"></polygon>
                        <polygon id="Path" fill="#FF8766" points="9.00007374 1 5 6 13 6"></polygon>
                        <path d="M34,1 L26,11.4804271 L26,65.2006765 C26,69.5082186 29.5816249,73 34,73 L34,73 C38.4183751,73 42,69.5082186 42,65.2006765 L42,11.4804271 L34,1 Z" id="Path" fill="#56D676"></path>
                        <rect id="Rectangle" fill="#3FB35B" x="26" y="54" width="16" height="7"></rect>
                        <polygon id="Path" fill="#FFE4B3" points="26 11.1071039 28.6666667 15 31.3334823 11.1071039 34 15 36.6666667 11.1071039 39.3333333 15 42 11.1071039 34 1"></polygon>
                        <polygon id="Path" fill="#56D676" points="34 1 30 6 38 6"></polygon>
                        <path d="M59,1 L51,11.4804271 L51,65.2006765 C51,69.5082186 54.5816249,73 59,73 L59,73 C63.4183751,73 67,69.5082186 67,65.2006765 L67,11.4804271 L59,1 Z" id="Path" fill="#FFE780"></path>
                        <g id="Group" transform="translate(1.000000, 1.000000)" fill="#293133" opacity="0.15">
                            <path d="M7.85638554,0.0172741935 L0.0920963855,10.4926935 L0.0920963855,64.1872742 C0.0920963855,68.4927581 3.56819277,71.982871 7.85638554,71.982871 L7.85638554,71.982871 C8.58925301,71.982871 9.29725301,71.8786452 9.96939759,71.6881935 C6.70872289,70.7639516 4.31812048,67.7569355 4.31812048,64.1872742 L4.31812048,10.4926935 L7.85638554,0.0172741935 Z" id="Path"></path>
                            <path d="M32.8194217,0.0172741935 L25.0551325,10.4926935 L25.0551325,64.1872742 C25.0551325,68.4927581 28.5312289,71.982871 32.8194217,71.982871 L32.8194217,71.982871 C33.5522892,71.982871 34.2602892,71.8786452 34.9324337,71.6881935 C31.671759,70.7639516 29.2811566,67.7569355 29.2811566,64.1872742 L29.2811566,10.4926935 L32.8194217,0.0172741935 Z" id="Path"></path>
                            <path d="M57.7826024,0.0172741935 L50.0183133,10.4926935 L50.0183133,64.1872742 C50.0183133,68.4927581 53.4944096,71.982871 57.7826024,71.982871 L57.7826024,71.982871 C58.5154699,71.982871 59.2234699,71.8786452 59.8956145,71.6881935 C56.6347952,70.7639516 54.2443373,67.7569355 54.2443373,64.1872742 L54.2443373,10.4926935 L57.7826024,0.0172741935 Z" id="Path"></path>
                        </g>
                        <rect id="Rectangle" fill="#7162D9" x="51" y="54" width="16" height="7"></rect>
                        <polygon id="Path" fill="#FFE4B3" points="51 11.1071039 53.6665425 15 56.333383 11.1071039 59.0000745 15 61.666617 11.1071039 64.3334575 15 67 11.1071039 59.0000745 1"></polygon>
                        <polygon id="Path" fill="#FFE780" points="59 1 55 6 63 6"></polygon>
                        <g id="Group" fill="#26150C">
                            <path d="M17.962417,11.5844688 C17.9618383,11.5479023 17.9574979,11.511625 17.9535915,11.4750586 C17.9509872,11.4510664 17.9498298,11.4272187 17.9457787,11.4033711 C17.9392681,11.3649258 17.928417,11.3273477 17.9177106,11.2894805 C17.9119234,11.2688125 17.9081617,11.2477109 17.9013617,11.2274766 C17.8873277,11.1855625 17.8685191,11.1452383 17.849566,11.104625 C17.8424766,11.0897383 17.8375574,11.0739844 17.8298894,11.0592422 C17.8015319,11.005043 17.7689787,10.9525781 17.7316511,10.9024258 L13.886034,5.74020313 L9.96185532,0.47290625 C9.74020426,0.175460937 9.39065532,0 9.01940426,0 C8.64800851,0 8.29860426,0.175460937 8.07695319,0.47290625 L4.15291915,5.74049219 L0.307157447,10.9028594 C0.269829787,10.9528672 0.237276596,11.0054766 0.208919149,11.0596758 C0.201251064,11.074418 0.196187234,11.0900273 0.189242553,11.1050586 C0.170144681,11.1453828 0.151480851,11.1859961 0.137446809,11.2279102 C0.130502128,11.2481445 0.126740426,11.2692461 0.120953191,11.2899141 C0.110391489,11.3276367 0.0996851064,11.3653594 0.0930297872,11.4038047 C0.0889787234,11.4273633 0.0878212766,11.4515 0.0852170213,11.4754922 C0.0813106383,11.5119141 0.0771148936,11.5480469 0.0763914894,11.5847578 C0.0763914894,11.5911172 0.0748,11.597332 0.0748,11.6036914 L0.0748,53.6767383 L0.0748,60.7856523 L0.0748,65.0655117 C0.0748,69.992293 4.08737872,74.0005781 9.01925957,74.0005781 C13.9511404,74.0005781 17.9636127,69.992293 17.9636127,65.0655117 L17.9636127,60.7856523 L17.9636127,53.6767383 L17.9636127,11.6032578 C17.9638638,11.597043 17.962417,11.5908281 17.962417,11.5844688 Z M9.01940426,3.13921875 L10.6049617,5.26773047 L7.43384681,5.26773047 L9.01940426,3.13921875 Z M5.68537872,7.61462891 L12.3534298,7.61462891 L15.360766,11.6516758 L14.1992681,13.4534023 L12.5969277,10.968043 C12.3807745,10.6324414 12.0088,10.4299531 11.6093362,10.4299531 C11.2098723,10.4299531 10.8378979,10.6327305 10.6216,10.968043 L9.01940426,13.4532578 L7.41706383,10.9678984 C7.20091064,10.6322969 6.82893617,10.4298086 6.42947234,10.4298086 C6.03000851,10.4298086 5.65803404,10.6325859 5.44188085,10.9678984 L3.83954043,13.4532578 L2.67804255,11.6515313 L5.68537872,7.61462891 Z M15.6143915,65.0649336 C15.6143915,68.697582 12.6558128,71.652957 9.01954894,71.652957 L9.01954894,71.652957 C5.38314043,71.652957 2.4245617,68.6974375 2.4245617,65.0649336 L2.4245617,61.9585234 L15.6146809,61.9585234 L15.6146809,65.0649336 L15.6143915,65.0649336 Z M15.6143915,59.611625 L2.42427234,59.611625 L2.42427234,54.8496094 L15.6143915,54.8496094 L15.6143915,59.611625 Z M15.6143915,52.5028555 L2.42427234,52.5028555 L2.42427234,15.5927539 L2.85180426,16.2560078 C3.06795745,16.5916094 3.43993191,16.7940977 3.83939574,16.7940977 C4.23885957,16.7940977 4.61083404,16.5913203 4.82698723,16.2560078 L6.42932766,13.7706484 L8.03166809,16.2560078 C8.24796596,16.5916094 8.61994043,16.7940977 9.01940426,16.7940977 C9.41886809,16.7940977 9.79084255,16.5913203 10.0069957,16.2560078 L11.6093362,13.7706484 L13.2115319,16.2560078 C13.4278298,16.5916094 13.7998043,16.7940977 14.1992681,16.7940977 C14.5987319,16.7940977 14.9707064,16.5914648 15.1870043,16.2560078 L15.6143915,15.5927539 L15.6143915,52.5028555 L15.6143915,52.5028555 Z" id="Shape"></path>
                            <path d="M42.9430128,11.5844687 C42.942434,11.5479023 42.9382383,11.511625 42.9341872,11.4750586 C42.931583,11.4510664 42.9305702,11.4272187 42.9263745,11.4033711 C42.9198638,11.3649258 42.9090128,11.3273477 42.8984511,11.2894805 C42.8926638,11.2688125 42.8889021,11.2477109 42.8821021,11.2274766 C42.8677787,11.1855625 42.8492596,11.1452383 42.8301617,11.104625 C42.8230723,11.0897383 42.8181532,11.0739844 42.8106298,11.0592422 C42.7822723,11.005043 42.7497191,10.9525781 42.7122468,10.9024258 L38.8666298,5.74020313 L34.9425957,0.47290625 C34.7209447,0.175460937 34.3715404,0 34.0001447,0 C33.6287489,0 33.2793447,0.175460937 33.0576936,0.47290625 L29.1335149,5.74049219 L25.2878979,10.9027148 C25.2504255,10.9527227 25.2178723,11.005332 25.1895149,11.0595312 C25.1818468,11.0742734 25.176783,11.0898828 25.169983,11.1049141 C25.1508851,11.1452383 25.1322213,11.1858516 25.1180426,11.2277656 C25.1110979,11.248 25.1073362,11.2691016 25.1016936,11.2897695 C25.0911319,11.3274922 25.0804255,11.3652148 25.0737702,11.4036602 C25.0697191,11.4272187 25.0685617,11.4513555 25.0659574,11.4753477 C25.0619064,11.5117695 25.0578553,11.5479023 25.0571319,11.5846133 C25.0571319,11.5909727 25.0555404,11.5971875 25.0555404,11.6035469 L25.0555404,53.6765937 L25.0555404,60.7855078 L25.0555404,65.0653672 C25.0555404,69.9921484 29.0681191,74.0004336 34,74.0004336 C38.9318809,74.0004336 42.9444697,69.9921484 42.9444697,65.0653672 L42.9444697,60.7855078 L42.9444697,53.6765937 L42.9444697,11.6035469 C42.9444697,11.597043 42.9431574,11.5908281 42.9430128,11.5844687 Z M34.0001447,3.13921875 L35.5858468,5.26773047 L32.4145872,5.26773047 L34.0001447,3.13921875 Z M30.6661191,7.61462891 L37.3341702,7.61462891 L40.3416511,11.6516758 L39.1801532,13.4534023 L37.5778128,10.968043 C37.3616596,10.6324414 36.9896851,10.4299531 36.5902213,10.4299531 C36.1907574,10.4299531 35.818783,10.6325859 35.6024851,10.968043 L34.0001447,13.4534023 L32.3978043,10.968043 C32.1816511,10.6325859 31.8096766,10.4299531 31.4102128,10.4299531 C31.0107489,10.4299531 30.6387745,10.6325859 30.4226213,10.968043 L28.8201362,13.4532578 L27.6586383,11.6515313 L30.6661191,7.61462891 Z M40.5951319,65.0649336 C40.5951319,68.697582 37.6365532,71.652957 34.0001447,71.652957 C30.3637362,71.652957 27.4051574,68.6974375 27.4051574,65.0649336 L27.4051574,61.9585234 L40.5952766,61.9585234 L40.5952766,65.0649336 L40.5951319,65.0649336 Z M40.5951319,59.611625 L27.4050128,59.611625 L27.4050128,54.8496094 L40.5951319,54.8496094 L40.5951319,59.611625 Z M40.5951319,52.5028555 L27.4050128,52.5028555 L27.4050128,15.5927539 L27.8325447,16.2560078 C28.0486979,16.5916094 28.4206723,16.7940977 28.8201362,16.7940977 C29.2196,16.7940977 29.5915745,16.5914648 29.8078723,16.2560078 L31.4102128,13.7706484 L33.0125532,16.2560078 C33.2287064,16.5914648 33.6006809,16.7940977 34.0001447,16.7940977 C34.3996085,16.7940977 34.771583,16.5914648 34.9877362,16.2560078 L36.5900766,13.7706484 L38.1922723,16.2560078 C38.4085702,16.5916094 38.7805447,16.7940977 39.1800085,16.7940977 C39.5794723,16.7940977 39.9514468,16.5913203 40.1677447,16.2560078 L40.5951319,15.5927539 L40.5951319,52.5028555 L40.5951319,52.5028555 Z" id="Shape"></path>
                            <path d="M67.9240426,11.5844687 C67.9234638,11.5479023 67.9194128,11.511625 67.915217,11.4750586 C67.9126128,11.4510664 67.9116,11.4272187 67.9074043,11.4033711 C67.9008936,11.3649258 67.8900426,11.3273477 67.8794809,11.2894805 C67.8736936,11.2688125 67.8699319,11.2477109 67.8631319,11.2274766 C67.8488085,11.1855625 67.8302894,11.1452383 67.8111915,11.104625 C67.8041021,11.0897383 67.799183,11.0739844 67.7916596,11.0592422 C67.7633021,11.005043 67.7307489,10.9525781 67.6932766,10.9024258 L63.8476596,5.74020313 L59.9236255,0.47290625 C59.7018298,0.175460937 59.3522809,0 58.9810298,0 C58.609634,0 58.2602298,0.175460937 58.0385787,0.47290625 L54.1144,5.74049219 L50.268783,10.9027148 C50.2313106,10.9527227 50.1987574,11.005332 50.1704,11.0595312 C50.1627319,11.0742734 50.1576681,11.0898828 50.1508681,11.1049141 C50.1317702,11.1452383 50.1131064,11.1858516 50.0989277,11.2277656 C50.091983,11.248 50.0882213,11.2691016 50.0825787,11.2897695 C50.072017,11.3274922 50.0613106,11.3652148 50.0546553,11.4036602 C50.0506043,11.4272187 50.0494468,11.4513555 50.0468426,11.4753477 C50.0427915,11.5117695 50.0387404,11.5479023 50.038017,11.5846133 C50.038017,11.5909727 50.0364255,11.5971875 50.0364255,11.6035469 L50.0364255,53.6765937 L50.0364255,60.7855078 L50.0364255,65.0653672 C50.0364255,69.9921484 54.0490043,74.0004336 58.9808851,74.0004336 C63.912766,74.0004336 67.9253559,69.9921484 67.9253559,65.0653672 L67.9253559,60.7855078 L67.9253559,53.6765937 L67.9253559,11.6035469 C67.9253559,11.597043 67.9241872,11.5908281 67.9240426,11.5844687 Z M58.9810298,3.13921875 L60.5667319,5.26773047 L57.3954723,5.26773047 L58.9810298,3.13921875 Z M55.6470043,7.61462891 L62.3150553,7.61462891 L65.3225362,11.6516758 L64.1610383,13.4534023 L62.5585532,10.968043 C62.3424,10.6324414 61.9704255,10.4299531 61.5709617,10.4299531 C61.1714979,10.4299531 60.7995234,10.6327305 60.5833702,10.968043 L58.9810298,13.4534023 L57.3786894,10.968043 C57.1623915,10.6324414 56.790417,10.4299531 56.3909532,10.4299531 C55.9914894,10.4299531 55.6195149,10.6327305 55.4033617,10.968043 L53.8010213,13.4534023 L52.6395234,11.6516758 L55.6470043,7.61462891 Z M65.576017,65.0649336 C65.576017,68.697582 62.6174383,71.652957 58.9810298,71.652957 C55.3446213,71.652957 52.3860426,68.6974375 52.3860426,65.0649336 L52.3860426,61.9585234 L65.5761617,61.9585234 L65.576017,65.0649336 L65.576017,65.0649336 Z M65.576017,59.611625 L52.3858979,59.611625 L52.3858979,54.8496094 L65.576017,54.8496094 L65.576017,59.611625 Z M65.576017,52.5028555 L52.3858979,52.5028555 L52.3858979,15.5927539 L52.8134298,16.2560078 C53.029583,16.5916094 53.4015574,16.7940977 53.8010213,16.7940977 C54.2004851,16.7940977 54.5724596,16.5913203 54.7887574,16.2560078 L56.3909532,13.7706484 L57.9932936,16.2560078 C58.2094468,16.5916094 58.5814213,16.7940977 58.9808851,16.7940977 C59.3803489,16.7940977 59.7523234,16.5913203 59.9684766,16.2560078 L61.570817,13.7706484 L63.1731574,16.2560078 C63.3894553,16.5916094 63.7614298,16.7940977 64.1608936,16.7940977 C64.5603574,16.7940977 64.9323319,16.5914648 65.1484851,16.2560078 L65.576017,15.5927539 L65.576017,52.5028555 L65.576017,52.5028555 Z" id="Shape"></path>
                        </g>
                    </g>
                </g>
            </g>
        </g>
    </g>
</svg>