<?xml version="1.0" encoding="UTF-8"?>
<svg width="26px" height="26px" viewBox="0 0 26 26" version="1.1" xmlns="http://www.w3.org/2000/svg" xmlns:xlink="http://www.w3.org/1999/xlink">
    <title>icon-invision</title>
    <g id="Page-1" stroke="none" stroke-width="1" fill="none" fill-rule="evenodd">
        <g id="Group-7" transform="translate(0.000000, -36.000000)" fill-rule="nonzero">
            <g id="icon-invision" transform="translate(0.000000, 36.000000)">
                <path d="M22.9155605,0 L2.28443902,0 C1.02276561,0 0,1.02276561 0,2.28443902 L0,22.9155605 C0,24.177234 1.02276561,25.1999996 2.28443902,25.1999996 L22.9155605,25.1999996 C24.177234,25.1999996 25.1999996,24.177234 25.1999996,22.9155605 L25.1999996,2.28443902 C25.1999996,1.02276561 24.177234,0 22.9155605,0" id="Path" fill="#F83263"></path>
                <path d="M8.53522449,7.82514208 C9.35760277,7.82514208 10.0465258,7.1920273 10.0465258,6.36223878 C10.0465258,5.53301978 9.35760277,4.89999992 8.53522449,4.89999992 C7.7128462,4.89999992 7.02411647,5.53301978 7.02411647,6.36223878 C7.02411647,7.19193238 7.7128462,7.82514208 8.53522449,7.82514208 M5.40168298,15.6579204 C5.31287386,16.0290567 5.26832434,16.4298079 5.26832434,16.7567116 C5.26832434,18.0448676 5.97947379,18.8999997 7.49077508,18.8999997 C8.74415303,18.8999997 9.76028789,18.1689277 10.4919243,16.9884107 L10.0451729,18.7494569 L12.534051,18.7494569 L13.9565431,13.1454894 C14.3121662,11.7266289 15.0010892,10.9901465 16.0457319,10.9901465 C16.8680135,10.9901465 17.379125,11.4924618 17.379125,12.3216808 C17.379125,12.5619227 17.3568986,12.8236165 17.2679928,13.1075215 L16.5345203,15.6833589 C16.4233881,16.0544952 16.3791285,16.4258213 16.3791285,16.7748412 C16.3791285,17.9976925 17.1123111,18.8921213 18.6458388,18.8921213 C19.9571022,18.8921213 21.0015516,18.0629973 21.579439,16.0764217 L20.6016689,15.7056651 C20.1126872,17.036535 19.6903849,17.2771566 19.3569883,17.2771566 C19.0235917,17.2771566 18.8457801,17.059031 18.8457801,16.6226849 C18.8457801,16.426201 18.8904263,16.2081703 18.9569123,15.9456222 L19.6682551,13.4361337 C19.84597,12.8468718 19.9127459,12.3243386 19.9127459,11.8442344 C19.9127459,9.96691148 18.756971,8.98714975 17.3568986,8.98714975 C16.0457319,8.98714975 14.7121455,10.1488727 14.0455455,11.371534 L14.5343339,9.17698926 L10.7341925,9.17698926 L10.2007579,11.1099352 L11.9787765,11.1099352 L10.8838828,15.4154954 C10.0241061,17.2928183 8.44477254,17.3232876 8.24657068,17.2797194 C7.92109828,17.2075804 7.71294284,17.086178 7.71294284,16.6708092 C7.71294284,16.4311368 7.75739572,16.0868628 7.86852792,15.6717787 L9.53551093,9.17698926 L5.31287386,9.17698926 L4.77943929,11.1099352 L6.53503815,11.1099352 L5.40177962,15.6579204" id="Shape" fill="#FFFFFF"></path>
            </g>
        </g>
    </g>
</svg>