<?xml version="1.0" encoding="UTF-8"?>
<svg width="23px" height="36px" viewBox="0 0 23 36" version="1.1" xmlns="http://www.w3.org/2000/svg" xmlns:xlink="http://www.w3.org/1999/xlink">
    <title>mouse-svgrepo-com</title>
    <g id="Page-1" stroke="none" stroke-width="1" fill="none" fill-rule="evenodd">
        <g id="PORTFOLIO-/-HOME" transform="translate(-904.000000, -913.000000)" fill="#ED5930" fill-rule="nonzero">
            <g id="Group-5" transform="translate(458.000000, 65.000000)">
                <g id="Group-9" transform="translate(422.000000, 828.000000)">
                    <g id="mouse-svgrepo-com" transform="translate(24.000000, 20.000000)">
                        <path d="M12,5 C10.8971484,5 10,5.89714839 10,7 C10,8.10285029 10.8971484,9 12,9 C13.1028516,9 14,8.10285029 14,7 C14,5.89714839 13.1028516,5 12,5 Z M12,7.77133087 C11.5750855,7.77133087 11.2286691,7.42491451 11.2286691,7 C11.2286691,6.57508549 11.5750855,6.22866913 12,6.22866913 C12.4249145,6.22866913 12.7713309,6.57508549 12.7713309,7 C12.7713309,7.42491451 12.4249145,7.77133087 12,7.77133087 Z" id="Shape"></path>
                        <path d="M13.8,0.177682506 L12.2494174,0.177682506 L10.7505198,0.177682506 L9.2,0.177682506 C4.11891628,0.177682506 0,4.18724361 0,9.13326188 L0,27.0444206 C0,31.9905114 4.11891628,36 9.2,36 L13.8,36 C18.8810208,36 23,31.9905114 23,27.0444206 L23,9.13326188 C23,4.18724361 18.8810208,0.177682506 13.8,0.177682506 Z M21.4666667,27.0444206 C21.4666667,31.1595833 18.0273999,34.5074034 13.8,34.5074034 L9.2,34.5074034 C4.97252402,34.5074034 1.53333333,31.1595833 1.53333333,27.0444206 L1.53333333,9.13326188 C1.53333333,5.01817323 4.97252402,1.67027907 9.2,1.67027907 L13.8,1.67027907 C18.0273999,1.67027907 21.4666667,5.01817323 21.4666667,9.13326188 L21.4666667,27.0444206 Z" id="Shape"></path>
                    </g>
                </g>
            </g>
        </g>
    </g>
</svg>