<?xml version="1.0" encoding="UTF-8"?>
<svg width="33px" height="32px" viewBox="0 0 33 32" version="1.1" xmlns="http://www.w3.org/2000/svg" xmlns:xlink="http://www.w3.org/1999/xlink">
    <title>icon-komoot</title>
    <g id="Symbols" stroke="none" stroke-width="1" fill="none" fill-rule="evenodd">
        <g id="icon/icon-komoot" fill="#45A44B" fill-rule="nonzero">
            <g id="icon-komoot">
                <path d="M14.051614,19.7719843 L16.984932,15.1986546 L19.91825,19.7719843 L27.8675419,27.7213113 C24.913665,30.4756962 21.0237352,32.0050811 16.984932,31.9999873 C12.9276199,31.9999873 9.07164,30.4799758 6.10232216,27.7213113 L14.051614,19.7719843 Z M0.984931403,15.9999873 C0.984931403,7.17999429 8.16497806,0 16.9849314,0 C25.8115526,0 32.9848485,7.17999429 32.9848485,15.9999873 C32.9848485,19.5506511 31.8448544,22.8999818 29.6928657,25.7119796 L21.6689076,17.6879859 C21.8689065,17.138653 21.9702393,16.5693202 21.9702393,15.994654 C21.9672998,13.2425511 19.7370227,11.0122641 16.9849314,11.0093246 C14.2328413,11.0122641 12.0025642,13.2425511 11.9996247,15.994654 C11.9996247,16.5693202 12.0996242,17.138653 12.3009565,17.6879859 L4.27699836,25.7119796 C2.13176574,22.9299668 0.973561576,19.5130383 0.984931403,15.9999873 L0.984931403,15.9999873 Z" id="Shape"></path>
            </g>
        </g>
    </g>
</svg>