<?xml version="1.0" encoding="UTF-8"?>
<svg width="87px" height="74px" viewBox="0 0 87 74" version="1.1" xmlns="http://www.w3.org/2000/svg" xmlns:xlink="http://www.w3.org/1999/xlink">
    <title>icon-develop</title>
    <g id="Page-1" stroke="none" stroke-width="1" fill="none" fill-rule="evenodd">
        <g id="PORTFOLIO-/-ABOUT-ME" transform="translate(-931.000000, -689.000000)" fill-rule="nonzero">
            <g id="Group-14" transform="translate(458.000000, 572.000000)">
                <g id="Group-13" transform="translate(0.000000, 82.000000)">
                    <g id="Group-9" transform="translate(354.000000, 0.000000)">
                        <g id="icon-develop" transform="translate(119.879747, 35.000000)">
                            <path d="M84.1202532,8.15578828 L84.1202532,20 L0.120253165,20 L0.120253165,8.15578828 C0.120253165,3.65178601 3.78965098,0 8.31537512,0 L75.9251312,0 C80.4508553,0 84.1202532,3.65178601 84.1202532,8.15578828 Z" id="Path" fill="#F8EC7D"></path>
                            <g id="Group" transform="translate(0.120253, 7.000000)">
                                <path d="M37.1107509,0.101349581 C38.8290342,0.106918115 40.216817,1.48655704 40.2112354,3.18299042 C40.2055862,4.8794236 38.8081773,6.25035083 37.0898939,6.24484029 C35.3716106,6.23926313 33.983828,4.85962401 33.9894094,3.16319063 C33.9958608,1.46675744 35.3924674,0.0966221495 37.1107509,0.101349581 Z" id="Path" fill="#E48E66"></path>
                                <path d="M84.1974927,12.9941088 L84.1974927,58.0018618 C84.1974927,62.4813327 80.5194677,66.111795 75.9831031,66.111795 L8.21438953,66.111795 C3.67802495,66.111795 0,62.4813327 0,58.0018618 L0,12.9941088 L84.1974927,12.9941088 Z" id="Path" fill="#EEC251"></path>
                                <path d="M23.1334537,0.0585606916 C24.851737,0.0641507878 26.2403219,1.44378991 26.2347404,3.14022309 C26.2290912,4.83665648 24.8316825,6.20758371 23.113399,6.20207316 C21.3951155,6.1964958 20.0065307,4.81685669 20.0121123,3.1204235 C20.0145527,2.30547031 20.3450533,1.52457235 20.9298474,0.950382789 C21.5154434,0.376193239 22.3088059,0.0554390975 23.1334537,0.0585606916 Z" id="Path" fill="#E48E66"></path>
                                <path d="M9.15695869,0.0142096061 C10.8760443,0.0190076559 12.2654312,1.39864678 12.2598498,3.0958719 C12.2550028,4.79309721 10.857594,6.16481638 9.13850835,6.15930582 C7.41942268,6.15452061 6.0300357,4.7748815 6.03561723,3.07765638 C6.03725553,2.26270298 6.36775615,1.48180522 6.95335239,0.90682353 C7.53894861,0.332633977 8.33150865,0.0110879006 9.15695869,0.0142096061 Z" id="Path" fill="#E48E66"></path>
                            </g>
                            <path d="M32.7018142,54 C32.3658289,54.0008063 32.0401208,53.8770273 31.7839814,53.6522708 L22.6183021,45.6115175 C22.3020807,45.333829 22.1202532,44.9274752 22.1202532,44.499949 C22.1202532,44.0724224 22.3020807,43.666069 22.6183021,43.3891947 L31.7839814,35.3484415 C32.3800588,34.8256379 33.2741751,34.8997422 33.7809202,35.5129374 C34.2884556,36.1269466 34.2173058,37.0479607 33.6212282,37.5707641 L25.7228063,44.499949 L33.6220187,51.4299478 C34.0742154,51.8265294 34.23786,52.4714835 34.0331066,53.0455903 C33.8275626,53.6196973 33.2971011,54.0008063 32.7026048,54 L32.7018142,54 Z" id="Path" fill="#D7AD41"></path>
                            <path d="M51.5387728,54 C50.9442364,54.0008117 50.4137393,53.6197026 50.2081815,53.0455954 C50.0034143,52.4714885 50.16707,51.8265342 50.619297,51.4299524 L58.5182489,44.4999517 L50.6185065,37.5707649 C50.0223889,37.0479613 49.9512344,36.1269469 50.4588038,35.5129376 C50.9655827,34.8997423 51.8597589,34.8256378 52.4558766,35.3484416 L61.6221709,43.3891971 C61.9384135,43.6660714 62.1202532,44.072425 62.1202532,44.4999517 C62.1202532,44.9274781 61.9384135,45.3338319 61.6221709,45.6115205 L52.4558766,53.652276 C52.19972,53.8770325 51.8747806,54 51.5387728,54 L51.5387728,54 Z" id="Path" fill="#D7AD41"></path>
                            <path d="M38.6138824,60 C38.1635085,60 37.7381091,59.8068544 37.454232,59.4751823 C37.1711875,59.1427186 37.0596345,58.7073496 37.1520403,58.2886038 L43.168403,31.1263212 C43.3382298,30.35928 44.1290896,29.8692919 44.9357666,30.0307742 C45.7416112,30.1922566 46.2577516,30.9442579 46.0879246,31.711299 L40.0715621,58.8735814 C39.9267098,59.5290097 39.3181641,59.9992085 38.6138824,60 L38.6138824,60 Z" id="Path" fill="#D7AD41"></path>
                        </g>
                    </g>
                </g>
            </g>
        </g>
    </g>
</svg>