<?xml version="1.0" encoding="UTF-8"?>
<svg width="79px" height="81px" viewBox="0 0 79 81" version="1.1" xmlns="http://www.w3.org/2000/svg" xmlns:xlink="http://www.w3.org/1999/xlink">
    <title>icon-social</title>
    <g id="Page-1" stroke="none" stroke-width="1" fill="none" fill-rule="evenodd">
        <g id="Group-9" transform="translate(-123.000000, -30.000000)" fill-rule="nonzero">
            <g id="icon-social" transform="translate(123.000000, 30.000000)">
                <g id="Group" transform="translate(19.132636, 11.000000)" fill="#434A54">
                    <polygon id="Path" points="36.5917568 56.9584011 0.153385135 27.8782396 2.19261486 25.2109889 38.6348716 54.2911504"></polygon>
                    <polygon id="Path" points="39.2558716 55.8331671 35.9707568 55.4141616 42.5946014 1.26114485 45.8845338 1.68110306"></polygon>
                    <polygon id="Path" points="1.99369595 28.0147855 0.353702703 25.0747604 43.4194932 0.00047632312 45.0596419 2.94177159"></polygon>
                </g>
                <path d="M41.132636,40.5 C41.132636,51.8210008 31.954919,61 20.632636,61 C9.31035298,61 0.132636015,51.8208405 0.132636015,40.5 C0.132636015,29.177717 9.31035298,20 20.632636,20 C31.954919,20 41.132636,29.177717 41.132636,40.5 Z" id="Path" fill="#ED5564"></path>
                <path d="M78.132636,13.5007125 C78.132636,20.9561077 72.0871841,27 64.632636,27 C57.1780879,27 51.132636,20.9561077 51.132636,13.5007125 C51.132636,6.04389231 57.1780879,0 64.632636,0 C72.0871841,0 78.132636,6.04389231 78.132636,13.5007125 Z" id="Path" fill="#A0D468"></path>
                <path d="M70.132636,67.5012666 C70.132636,74.9563558 64.0909581,81 56.6350111,81 C49.1743139,81 43.132636,74.9563558 43.132636,67.5012666 C43.132636,60.0436442 49.1743139,54 56.6350111,54 C64.0911164,54 70.132636,60.0436442 70.132636,67.5012666 Z" id="Path" fill="#EC87C0"></path>
                <path d="M35.132636,54.4554949 L35.132636,53.5161341 C35.132636,51.9950117 34.1721674,50.6442712 32.7432484,50.1622759 L32.6356625,50.1306313 C31.0657952,49.7024162 30.5342931,49.2886984 29.835367,49.0183944 C27.3576763,48.0570538 26.7124666,47.363523 26.5476443,47.0372564 C26.5416758,47.0250974 26.5369316,47.0129384 26.5321875,47.0007794 L26.510609,44.0682775 L20.6327125,44 L14.7537448,44.0682775 L14.7333907,47.0007794 C14.7286465,47.0129384 14.7239023,47.0250974 14.7177807,47.0372564 C14.5529585,47.363523 13.9079019,48.0570538 11.4288338,49.0183944 C10.731132,49.2885425 10.1994768,49.7024162 8.62960955,50.1306313 L8.5220236,50.1622759 C7.09325767,50.6442712 6.13263601,51.9950117 6.13263601,53.5161341 L6.13263601,54.4554949 C9.71312099,58.4762276 14.8836743,61 20.6324065,61 C26.3811386,61 31.552151,58.4762276 35.132636,54.4554949 Z" id="Path" fill="#48CFAD"></path>
                <path d="M29.132636,37.2727507 C29.132636,42.8592447 23.8668205,48 20.632636,48 C17.3984516,48 12.132636,42.8592447 12.132636,37.2727507 C12.132636,31.6862568 15.9381968,28 20.632636,28 C25.3270752,28 29.132636,31.6862568 29.132636,37.2727507 Z" id="Path" fill="#EAC6BB"></path>
                <path d="M74.132636,22.4629112 L74.132636,21.5612123 C74.132636,20.5117204 73.4676784,19.5811055 72.4823106,19.2487316 L72.408479,19.2273658 C71.3295597,18.9312976 70.9600862,18.6467958 70.477499,18.459966 C68.7681714,17.7965033 68.3247086,17.3187459 68.211437,17.0930401 C68.2065465,17.0854898 68.2065465,17.0766543 68.2016559,17.0679795 L68.1868265,15.0464263 L64.1327149,15 L60.0786033,15.0464263 L60.0637739,17.0679795 C60.0588833,17.076815 60.0588833,17.0854898 60.0539927,17.0930401 C59.9405634,17.3187459 59.4922101,17.7965033 57.7828825,18.459966 C57.3051858,18.6467958 56.9357123,18.9314583 55.856793,19.2273658 L55.7780708,19.2487316 C54.7927031,19.5809449 54.132636,20.5115597 54.132636,21.5612123 L54.132636,22.4629112 C56.5955822,25.2481693 60.162216,27 64.1327149,27 C68.1032138,27 71.6695321,25.2481693 74.132636,22.4629112 Z" id="Path" fill="#AC92EB"></path>
                <path d="M70.132636,13.0277999 C70.132636,16.6588668 66.4181179,20 64.132636,20 C61.8471541,20 58.132636,16.6588668 58.132636,13.0277999 C58.132636,9.39657625 60.8172318,7 64.132636,7 C67.447872,7 70.132636,9.39657625 70.132636,13.0277999 Z" id="Path" fill="#EAC6BB"></path>
                <path d="M67.132636,76.4633363 L67.132636,75.563007 C67.132636,74.5123283 66.4676784,73.5818007 65.4823106,73.2483335 L65.408479,73.2282548 C64.3246691,72.9323749 63.9600862,72.6464541 63.477499,72.4609268 C61.7681714,71.7962413 61.3247086,71.3198137 61.211437,71.094129 C61.2065465,71.0865794 61.2016559,71.0766204 61.1966076,71.0690708 L61.1868265,69.047707 L57.1327149,69 L53.0786033,69.047707 L53.0637739,71.0690708 C53.0588833,71.0766204 53.0539927,71.0865794 53.0539927,71.094129 C52.9356729,71.3198137 52.4922101,71.7962413 50.7830403,72.4609268 C50.3001375,72.6464541 49.9357123,72.9325355 48.8519024,73.2282548 L48.7780708,73.2483335 C47.7927031,73.5818007 47.132636,74.5123283 47.132636,75.563007 L47.132636,76.4633363 C49.5908494,79.2496185 53.162216,81 57.1327149,81 C61.1032138,81 64.6696899,79.2494579 67.132636,76.4633363 Z" id="Path" fill="#FFCE54"></path>
                <path d="M63.132636,67.0265461 C63.132636,70.657613 59.4129019,74 57.132636,74 C54.8471541,74 51.132636,70.657613 51.132636,67.0265461 C51.132636,63.3953225 53.8174,61 57.132636,61 C60.4426559,61 63.132636,63.3954792 63.132636,67.0265461 Z" id="Path" fill="#EAC6BB"></path>
            </g>
        </g>
    </g>
</svg>